<?xml version="1.0" encoding="UTF-8" standalone="no"?>
<!DOCTYPE svg PUBLIC "-//W3C//DTD SVG 1.1//EN" "http://www.w3.org/Graphics/SVG/1.1/DTD/svg11.dtd">
<svg width="100%" height="100%" viewBox="0 0 461 260" version="1.1" xmlns="http://www.w3.org/2000/svg" xmlns:xlink="http://www.w3.org/1999/xlink" xml:space="preserve" xmlns:serif="http://www.serif.com/" style="fill-rule:evenodd;clip-rule:evenodd;stroke-linejoin:round;stroke-miterlimit:2;">
    <g transform="matrix(0.24,0,0,0.24,0,0)">
        <g id="_1--Etoiles-mission" serif:id="1- Etoiles mission" transform="matrix(1.28084,0.0982607,-0.0982607,1.28084,426.991,-87.3328)">
            <g transform="matrix(1.35622,0,0,1.35622,-74.7769,-191.613)">
                <circle cx="239.264" cy="546.273" r="6.273" style="fill:white;"/>
            </g>
            <g transform="matrix(0.670279,8.29422e-18,-8.29422e-18,0.670279,284.792,225.144)">
                <circle cx="239.264" cy="546.273" r="6.273" style="fill:white;"/>
            </g>
            <g transform="matrix(1.14327,-1.13965e-17,1.13965e-17,1.14327,72.0439,-276.691)">
                <circle cx="239.264" cy="546.273" r="6.273" style="fill:white;"/>
            </g>
            <g transform="matrix(0.942695,-1.04823e-17,1.04823e-17,0.942695,45.6857,-286.08)">
                <circle cx="239.264" cy="546.273" r="6.273" style="fill:white;"/>
            </g>
            <g transform="matrix(0.848915,2.07183e-17,-2.07183e-17,0.848915,40.7589,-369.073)">
                <circle cx="239.264" cy="546.273" r="6.273" style="fill:white;"/>
            </g>
            <g transform="matrix(0.442019,5.5376e-18,-5.5376e-18,0.442019,117.556,-26.2142)">
                <circle cx="239.264" cy="546.273" r="6.273" style="fill:white;"/>
            </g>
            <g transform="matrix(0.646466,0,0,0.646466,57.4217,-7.73847)">
                <circle cx="239.264" cy="546.273" r="6.273" style="fill:white;"/>
            </g>
            <g transform="matrix(0.841289,-8.32698e-18,8.32698e-18,0.841289,200.79,-300.851)">
                <circle cx="239.264" cy="546.273" r="6.273" style="fill:white;"/>
            </g>
            <g transform="matrix(0.486572,1.2473e-17,-1.2473e-17,0.486572,225.485,-138.634)">
                <circle cx="239.264" cy="546.273" r="6.273" style="fill:white;"/>
            </g>
            <g transform="matrix(0.786663,0,0,0.786663,20.3946,-7.43731)">
                <circle cx="239.264" cy="546.273" r="6.273" style="fill:white;"/>
            </g>
        </g>
    </g>
</svg>
