<?xml version="1.0" encoding="UTF-8" standalone="no"?>
<!DOCTYPE svg PUBLIC "-//W3C//DTD SVG 1.1//EN" "http://www.w3.org/Graphics/SVG/1.1/DTD/svg11.dtd">
<svg width="100%" height="100%" viewBox="0 0 1920 1080" version="1.1" xmlns="http://www.w3.org/2000/svg" xmlns:xlink="http://www.w3.org/1999/xlink" xml:space="preserve" xmlns:serif="http://www.serif.com/" style="fill-rule:evenodd;clip-rule:evenodd;stroke-linejoin:round;stroke-miterlimit:2;">
    <g id="_4--Etoiles-coulisses" serif:id="4- Etoiles coulisses" transform="matrix(0.804537,-0.0680977,0.0680977,0.804537,422.873,413.787)">
        <g transform="matrix(1.42927,3.96702e-17,-3.96702e-17,1.42927,-573.269,-101.248)">
            <circle cx="1351.34" cy="227.193" r="5.256" style="fill:white;"/>
        </g>
        <g transform="matrix(1.96799,0,0,1.96799,-1553.92,383.485)">
            <circle cx="1351.34" cy="227.193" r="5.256" style="fill:white;"/>
        </g>
        <g transform="matrix(1.70122,9.44366e-17,-9.44366e-17,1.70122,-793.122,175.883)">
            <circle cx="1351.34" cy="227.193" r="5.256" style="fill:white;"/>
        </g>
        <g transform="matrix(1.70122,0,0,1.70122,-1311.48,351.277)">
            <circle cx="1351.34" cy="227.193" r="5.256" style="fill:white;"/>
        </g>
        <g transform="matrix(1.90287,1.55647e-16,-1.55647e-16,1.90287,-1282.2,93.0439)">
            <circle cx="1351.34" cy="227.193" r="5.256" style="fill:white;"/>
        </g>
        <g transform="matrix(1.70821,1.91602e-16,-1.91602e-16,1.70821,-675.744,286.34)">
            <circle cx="1351.34" cy="227.193" r="5.256" style="fill:white;"/>
        </g>
        <g transform="matrix(2.29678,3.71936e-16,-3.71936e-16,2.29678,-1682.32,-66.379)">
            <circle cx="1351.34" cy="227.193" r="5.256" style="fill:white;"/>
        </g>
        <g transform="matrix(2.29678,4.99433e-16,-4.99433e-16,2.29678,-1592.65,280.579)">
            <circle cx="1351.34" cy="227.193" r="5.256" style="fill:white;"/>
        </g>
        <g transform="matrix(1.09146,4.54413e-17,-4.54413e-17,1.09146,-384.786,279.634)">
            <circle cx="1351.34" cy="227.193" r="5.256" style="fill:white;"/>
        </g>
        <g transform="matrix(1.53076,-1.81013e-17,1.81013e-17,1.53076,-1101.17,243.021)">
            <circle cx="1351.34" cy="227.193" r="5.256" style="fill:white;"/>
        </g>
        <g transform="matrix(1.45732,4.04487e-17,-4.04487e-17,1.45732,-631.293,534.534)">
            <circle cx="1351.34" cy="227.193" r="5.256" style="fill:white;"/>
        </g>
        <g transform="matrix(1.09146,3.02942e-17,-3.02942e-17,1.09146,127.245,319.438)">
            <circle cx="1351.34" cy="227.193" r="5.256" style="fill:white;"/>
        </g>
        <g transform="matrix(1.09146,3.02942e-17,-3.02942e-17,1.09146,-20.7458,443.916)">
            <circle cx="1351.34" cy="227.193" r="5.256" style="fill:white;"/>
        </g>
        <g transform="matrix(2.07063,2.69865e-16,-2.69865e-16,2.07063,-1591.59,-200.11)">
            <circle cx="1351.34" cy="227.193" r="5.256" style="fill:white;"/>
        </g>
    </g>
</svg>
