<?xml version="1.0" encoding="UTF-8" standalone="no"?>
<!DOCTYPE svg PUBLIC "-//W3C//DTD SVG 1.1//EN" "http://www.w3.org/Graphics/SVG/1.1/DTD/svg11.dtd">
<svg width="100%" height="100%" viewBox="0 0 1920 1080" version="1.1" xmlns="http://www.w3.org/2000/svg" xmlns:xlink="http://www.w3.org/1999/xlink" xml:space="preserve" xmlns:serif="http://www.serif.com/" style="fill-rule:evenodd;clip-rule:evenodd;stroke-linejoin:round;stroke-miterlimit:2;">
    <g id="_2--Etoiles-zones" serif:id="2- Etoiles zones" transform="matrix(1.1713,-0.358474,0.358474,1.1713,-463.714,500.388)">
        <g transform="matrix(1.29201,5.55112e-17,-5.55112e-17,1.29201,-367.318,-153.191)">
            <circle cx="1257.89" cy="524.608" r="6.409" style="fill:white;"/>
        </g>
        <g transform="matrix(1.49157,5.55112e-17,-5.55112e-17,1.49157,-711.431,-135.519)">
            <circle cx="1414.92" cy="261.023" r="4.807" style="fill:white;"/>
        </g>
        <g transform="matrix(1.32533,-5.55112e-17,5.55112e-17,1.32533,-477.412,-2.22323)">
            <circle cx="1469.6" cy="55.322" r="8.212" style="fill:white;"/>
        </g>
        <g transform="matrix(1.60521,5.55112e-17,-5.55112e-17,1.60521,-891.957,-254.615)">
            <circle cx="1536.7" cy="340.339" r="3.205" style="fill:white;"/>
        </g>
        <g transform="matrix(1.56858,5.55112e-17,-5.55112e-17,1.56858,-991.671,-126.525)">
            <circle cx="1726.78" cy="324.516" r="5.808" style="fill:white;"/>
        </g>
    </g>
</svg>
