<?xml version="1.0" encoding="UTF-8" standalone="no"?>
<!DOCTYPE svg PUBLIC "-//W3C//DTD SVG 1.1//EN" "http://www.w3.org/Graphics/SVG/1.1/DTD/svg11.dtd">
<svg width="100%" height="100%" viewBox="0 0 1920 1080" version="1.1" xmlns="http://www.w3.org/2000/svg" xmlns:xlink="http://www.w3.org/1999/xlink" xml:space="preserve" xmlns:serif="http://www.serif.com/" style="fill-rule:evenodd;clip-rule:evenodd;stroke-linejoin:round;stroke-miterlimit:2;">
    <g id="_3--Etoiles-inventaire" serif:id="3- Etoiles inventaire" transform="matrix(1.0918,-0.0908013,0.0908013,1.0918,-199.27,37.4909)">
        <g transform="matrix(0.916748,1.98109e-17,-1.98109e-17,0.916748,68.0298,64.4531)">
            <circle cx="791.538" cy="799.818" r="7.452" style="fill:white;"/>
        </g>
        <g transform="matrix(1.43392,5.63265e-17,-5.63265e-17,1.43392,-328.893,-238.794)">
            <circle cx="791.538" cy="799.818" r="7.452" style="fill:white;"/>
        </g>
        <g transform="matrix(1.61191,-4.03858e-17,4.03858e-17,1.61191,-923.208,-450.897)">
            <circle cx="791.538" cy="799.818" r="7.452" style="fill:white;"/>
        </g>
        <g transform="matrix(1.06759,0,0,1.06759,-469.486,-154.698)">
            <circle cx="791.538" cy="799.818" r="7.452" style="fill:white;"/>
        </g>
        <g transform="matrix(0.89027,0,0,0.89027,-471.811,111.959)">
            <circle cx="791.538" cy="799.818" r="7.452" style="fill:white;"/>
        </g>
        <g transform="matrix(0.751576,0,0,0.751576,328.055,369.644)">
            <circle cx="791.538" cy="799.818" r="7.452" style="fill:white;"/>
        </g>
    </g>
</svg>
