<svg xmlns="http://www.w3.org/2000/svg" viewBox="0 0 461 260" fill-rule="evenodd" stroke-linejoin="round" stroke-miterlimit="2" xmlnsV="https://vecta.io/nano"><g fill="#fff" transform="matrix(.307402 .023583 -.023583 .307402 102.47784 -20.959872)"><circle cx="239.264" cy="546.273" r="6.273" transform="matrix(1.35622 0 0 1.35622 -74.7769 -191.613)"/><circle cx="239.264" cy="546.273" r="6.273" transform="matrix(.670279 0 0 .670279 284.792 225.144)"/><circle cx="239.264" cy="546.273" r="6.273" transform="matrix(1.14327 0 0 1.14327 72.0439 -276.691)"/><circle cx="239.264" cy="546.273" r="6.273" transform="matrix(.942695 0 0 .942695 45.6857 -286.08)"/><circle cx="239.264" cy="546.273" r="6.273" transform="matrix(.848915 0 0 .848915 40.7589 -369.073)"/><circle cx="239.264" cy="546.273" r="6.273" transform="matrix(.442019 0 0 .442019 117.556 -26.2142)"/><circle cx="239.264" cy="546.273" r="6.273" transform="matrix(.646466 0 0 .646466 57.4217 -7.73847)"/><circle cx="239.264" cy="546.273" r="6.273" transform="matrix(.841289 0 0 .841289 200.79 -300.851)"/><circle cx="239.264" cy="546.273" r="6.273" transform="matrix(.486572 0 0 .486572 225.485 -138.634)"/><circle cx="239.264" cy="546.273" r="6.273" transform="matrix(.786663 0 0 .786663 20.3946 -7.43731)"/></g></svg>