<svg xmlns="http://www.w3.org/2000/svg" viewBox="0 0 1920 1080" fill-rule="evenodd" stroke-linejoin="round" stroke-miterlimit="2" xmlnsV="https://vecta.io/nano"><g fill="#fff" transform="matrix(.804537 -.068098 .068098 .804537 422.873 413.787)"><circle cx="1351.34" cy="227.193" r="5.256" transform="matrix(1.42927 0 0 1.42927 -573.269 -101.248)"/><circle cx="1351.34" cy="227.193" r="5.256" transform="matrix(1.96799 0 0 1.96799 -1553.92 383.485)"/><circle cx="1351.34" cy="227.193" r="5.256" transform="matrix(1.70122 0 0 1.70122 -793.122 175.883)"/><circle cx="1351.34" cy="227.193" r="5.256" transform="matrix(1.70122 0 0 1.70122 -1311.48 351.277)"/><circle cx="1351.34" cy="227.193" r="5.256" transform="matrix(1.90287 0 0 1.90287 -1282.2 93.0439)"/><circle cx="1351.34" cy="227.193" r="5.256" transform="matrix(1.70821 0 0 1.70821 -675.744 286.34)"/><circle cx="1351.34" cy="227.193" r="5.256" transform="matrix(2.29678 0 0 2.29678 -1682.32 -66.379)"/><circle cx="1351.34" cy="227.193" r="5.256" transform="matrix(2.29678 0 0 2.29678 -1592.65 280.579)"/><circle cx="1351.34" cy="227.193" r="5.256" transform="matrix(1.09146 0 0 1.09146 -384.786 279.634)"/><circle cx="1351.34" cy="227.193" r="5.256" transform="matrix(1.53076 0 0 1.53076 -1101.17 243.021)"/><circle cx="1351.34" cy="227.193" r="5.256" transform="matrix(1.45732 0 0 1.45732 -631.293 534.534)"/><circle cx="1351.34" cy="227.193" r="5.256" transform="matrix(1.09146 0 0 1.09146 127.245 319.438)"/><circle cx="1351.34" cy="227.193" r="5.256" transform="matrix(1.09146 0 0 1.09146 -20.7458 443.916)"/><circle cx="1351.34" cy="227.193" r="5.256" transform="matrix(2.07063 0 0 2.07063 -1591.59 -200.11)"/></g></svg>