<svg xmlns="http://www.w3.org/2000/svg" viewBox="0 0 1920 1080" fill-rule="evenodd" stroke-linejoin="round" stroke-miterlimit="2" xmlnsV="https://vecta.io/nano"><g fill="#fff" transform="matrix(1.0918 -.090801 .090801 1.0918 -199.27 37.4909)"><circle cx="791.538" cy="799.818" r="7.452" transform="matrix(.916748 0 0 .916748 68.0298 64.4531)"/><circle cx="791.538" cy="799.818" r="7.452" transform="matrix(1.43392 0 0 1.43392 -328.893 -238.794)"/><circle cx="791.538" cy="799.818" r="7.452" transform="matrix(1.61191 0 0 1.61191 -923.208 -450.897)"/><circle cx="791.538" cy="799.818" r="7.452" transform="matrix(1.06759 0 0 1.06759 -469.486 -154.698)"/><circle cx="791.538" cy="799.818" r="7.452" transform="matrix(.89027 0 0 .89027 -471.811 111.959)"/><circle cx="791.538" cy="799.818" r="7.452" transform="matrix(.751576 0 0 .751576 328.055 369.644)"/></g></svg>